<svg width="800" height="600" xmlns="http://www.w3.org/2000/svg">

 <g>
  <title>Layer 1</title>
  <metadata>Created by potrace 1.10, written by Peter Selinger 2001-2011</metadata>
  <g id="svg_29">
   <path d="m327.7752,264.84419c0,2.9 -0.2,3.1 -3,2.7l-3,-0.5l0,29.9l0,29.8l3,0c2.5,0 3,0.4 3,2.5l0,2.5l73,0l73,0l0,-2.5c0,-2.1 0.5,-2.5 3,-2.5l3,0l0,-29.8l0,-29.9l-3,0.5c-2.8,0.4 -3,0.2 -3,-2.7l0,-3.1l-73,0l-73,0l0,3.1zm146,32.4l0,29.5l-73,0l-73,0l0,-29.5l0,-29.5l73,0l73,0l0,29.5z"/>
   <path d="m344.7752,296.74419l0,18l3.3,0l3.3,0l-0.4,-6l-0.4,-6l6.4,0l6.5,0l-0.5,-3c-0.4,-2.8 -0.2,-3 2.7,-3c3.1,0 3.1,0 3.1,-5.5c0,-5.4 0,-5.5 -3,-5.5c-2.8,0 -3,-0.3 -3,-3.5l0,-3.5l-9,0l-9,0l0,18zm6,-14.1c0,0.6 -0.4,1.3 -1,1.6c-0.5,0.3 -1.1,2.7 -1.2,5.3c-0.1,4.6 -0.1,4.6 -0.5,0.8c-0.5,-4.6 0.3,-8.6 1.7,-8.6c0.6,0 1,0.4 1,0.9zm12,8.6l0,5.5l-6,0l-6,0l0,-5.5l0,-5.5l6,0l6,0l0,5.5zm-12.3,10.3c-0.8,0.9 -1.7,2.8 -2,4.2c-0.2,1.4 -0.4,-0.5 -0.4,-4.2l0,-6.7l1.9,2.5c1.8,2.2 1.9,2.7 0.5,4.2z"/>
   <path d="m374.2752,296.74419l0,18l11.8,0l11.7,0l0,-3.3l0,-3.2l-8.5,0.3l-8.5,0.3l0,-15l0,-15.1l-3.2,0l-3.3,0l0,18zm5.5,14c1.2,2.2 1.1,2.4 -0.2,1.3c-0.8,-0.7 -1.7,-1 -2.1,-0.7c-0.3,0.3 -0.3,-0.4 0,-1.5c0.6,-2.5 0.6,-2.5 2.3,0.9z"/>
   <path d="m409.7752,284.74419c0,6 0,6 -3,6l-3,0l0,12l0,12l3,0c3,0 3,0 3,-6l0,-6l5.5,0l5.5,0l0,6l0,6l3.3,0l3.2,0l0,-12l0,-12l-3.2,0l-3.3,0l0,-6l0,-6l-5.5,0l-5.5,0l0,6zm7.9,-2.1c0.9,0.6 1.1,1.8 0.7,3.5c-0.5,1.9 -1.3,2.6 -3.1,2.6c-2.2,0 -2.5,-0.4 -2.5,-3.5c0,-3.6 1.8,-4.6 4.9,-2.6zm3.1,11.1c0,3 -0.1,3 -5.5,3c-5.4,0 -5.5,0 -5.5,-3c0,-3 0.1,-3 5.5,-3c5.4,0 5.5,0 5.5,3zm-13.5,1.9c-0.3,0.6 0.3,1.4 1.2,2c1.7,0.9 1.7,1.2 -0.2,4.7l-2,3.8l-0.3,-4.3c-0.3,-4.3 0.2,-7.1 1.3,-7.1c0.4,0 0.4,0.4 0,0.9zm17.5,3.6c0,3.5 -0.3,4.3 -1.5,3.9c-0.8,-0.4 -1.2,-1.1 -0.8,-1.8c0.7,-1.1 0.9,-1.6 1.1,-4.9c0.4,-3.5 1.2,-1.5 1.2,2.8zm-2.7,-0.1c0.4,1 0,1.4 -1.3,1.3c-1.4,-0.1 -1.6,-0.4 -0.8,-1.4c1.3,-1.6 1.5,-1.6 2.1,0.1zm2.4,10.3c-0.3,1 -0.5,0.2 -0.5,-1.7c0,-1.9 0.2,-2.7 0.5,-1.8c0.2,1 0.2,2.6 0,3.5zm-16.7,-1.7c0,0.5 -0.2,1 -0.4,1c-0.3,0 -0.8,-0.5 -1.1,-1c-0.3,-0.6 -0.1,-1 0.4,-1c0.6,0 1.1,0.4 1.1,1z"/>
   <path d="m432.7752,282.18915c0,3.5 0.1,3.6 3,3.2c2.7,-0.4 3,-0.2 3,2.4c0,2.4 0.4,2.8 3,2.8l3,0l0,12l0,12l3.1,0l3.1,0l-0.3,-12l-0.4,-12l3.3,0c2.9,0 3.2,-0.3 3.2,-2.8c0,-2.5 0.3,-2.8 2.8,-2.4c2.5,0.3 2.7,0.1 2.6,-3l-0.1,-3.3l-5.9,0l-5.9,0l0.3,3.2c0.3,3.1 0.1,3.3 -2.7,3.3c-2.9,0 -3.1,-0.3 -3.1,-3.5l0,-3.5l-6,0l-6,0l0,3.6zm6,0.8c-0.7,0.7 -1.3,0.7 -2,0c-0.6,-0.6 -0.3,-1 1,-1c1.3,0 1.6,0.4 1,1zm16.5,0.5c-0.2,0.9 -0.4,2 -0.4,2.4c-0.1,0.5 -0.5,0.6 -1,0.3c-0.5,-0.3 -1.1,0.1 -1.5,0.9c-0.3,0.8 -1.2,1.5 -2.1,1.5c-0.8,0 -1.5,0.4 -1.5,1c0,1.6 -3,1.1 -3.7,-0.6c-0.3,-0.8 -1.2,-1.3 -1.9,-1c-0.7,0.3 -1.5,-0.3 -1.8,-1.2c-0.8,-2.3 -0.7,-3.2 0.2,-3.1c0.4,0 0.6,0.7 0.4,1.6c-0.2,0.8 0.1,1.2 0.7,0.9c0.5,-0.4 1.7,0.4 2.5,1.6c0.9,1.2 1.6,1.7 1.6,1c0,-0.6 1,-1.2 2.3,-1.2c2.2,0 5.2,-3.4 4.3,-4.9c-0.3,-0.4 0.1,-0.8 0.8,-0.8c0.8,0 1.2,0.7 1.1,1.6z"/>
   <path id="svg_11" d="m350.85186,282.32492" opacity="NaN" stroke="null" fill="#191919"/>
   <ellipse id="svg_13" cy="282.01484" cx="357.0534" stroke="null" fill="#191919"/>
   <path d="m350.54178,297.20862c0,0.15506 0,0.31009 0,0.31009c0,0.15503 0,0.46512 0,0.62015c0,0.15503 0,0.31009 0,0.31009c0.46512,0 1.07098,-0.23199 1.70544,-0.31009c0.30774,-0.03787 0.62015,-0.15503 0.62015,-0.15503c0,0 0,0 0,0c0,0 0,0.62015 0,1.2403c0,0.62015 -0.07541,1.21298 -0.15506,1.55038c-0.03564,0.15091 -0.15503,0.15506 -0.15503,0.15506c-0.15503,0 -0.31006,0 -0.46512,0c-0.31006,0 -0.46512,0 -0.62015,-0.15506c-0.15503,-0.15503 -0.20047,-0.20044 -0.31009,-0.31006c-0.10962,-0.10962 -0.15503,-0.15506 -0.15503,-0.31009c0,-0.15503 -0.02902,-0.34213 0.31009,-0.62015c0.43231,-0.3544 0.80402,-0.57248 1.08527,-0.77521c0.17786,-0.1282 0.31006,-0.15503 0.31006,-0.15503c0,-0.15503 -0.10748,-0.22617 -0.31006,-0.31009c-0.14322,-0.05933 -0.31009,0 -0.31009,-0.15503c0,0 -0.20044,0.10962 -0.31006,0c-0.10962,-0.10962 -0.15506,-0.15503 -0.15506,-0.15503c-0.15503,0 -0.20044,-0.10962 -0.31006,0c-0.10962,0.10962 0,0.15503 0,0.15503c0,0.15503 0,0.15503 0,0.46512c0,0.15503 -0.03561,0.15918 0,0.31009c0.07965,0.33737 0.45233,0.52509 0.62015,0.93021c0.05936,0.14325 0.15503,0.31009 0.15503,0.31009c0,0 -0.16525,0.01898 -0.46512,-0.15503c-0.48349,-0.28058 -0.91187,-0.80469 -1.39532,-1.08527c-0.29987,-0.17401 -0.46512,-0.31009 -0.46512,-0.31009c0,-0.15503 0,-0.15503 0,-0.15503c0,0 0,0 0,-0.15506c0,0 0,0 0,0c0,0.15506 0.07538,0.12775 0.15503,0.46512c0.10687,0.45267 0.15503,0.77521 0.15503,1.08527c0,0.15506 0.15506,0.31009 0.15506,0.31009c0,0 0,-0.00003 -0.15506,0.15503c-0.15506,0.15506 -0.15503,0.15506 -0.31006,0.31009c0,0 0,0 0,0.15503c0,0 -0.07114,0.26254 -0.15506,0.46512c-0.05933,0.14322 0,0.31009 0,0.46512c0,0.15503 -0.04541,0.04541 -0.15503,0.15503c-0.10965,0.10965 0,0.31009 0,0.46512c0,0.15506 0,0.46512 0,0.62015c0,0.15506 0,0.31009 0,0.31009c0,0 0,-0.15503 0,-0.31009c0,-0.15503 0.13608,-0.47531 0.31009,-0.77518c0.28058,-0.48349 0.6738,-0.88458 0.93021,-1.2403c0.20273,-0.28125 0.31009,-0.31009 0.31009,-0.46512c0,0 0,-0.15506 0,-0.15506c0,-0.15503 -0.05933,-0.32187 0,-0.46512c0.08389,-0.20255 0.20044,-0.20041 0.31009,-0.31006c0.10965,-0.10965 0,-0.15506 0,-0.15506c0,0 -0.07956,0.0921 -0.31009,0.46512c-0.25775,0.41705 -0.67383,0.88458 -0.93024,1.24033c-0.2027,0.28122 -0.31006,0.31006 -0.31006,0.46512c0,0 -0.07114,-0.04755 -0.15506,0.15503c-0.05933,0.14322 -0.20044,0.20047 -0.31006,0.31009c-0.10962,0.10962 0,0.15503 0,0.31006c0,0 -0.07541,0.12772 -0.15506,0.46512c-0.07126,0.30179 -0.15503,0.46512 -0.15503,0.77521c0,0.15503 -0.15503,0.31006 -0.15503,0.46512c0,0 0,0 0,0c0,0.15503 0,0.15503 0,0.31006c0,0.15503 0,0.46512 0,0.46512c0,0.15503 0,0.15503 0,0c0,0 0,-0.15503 0,-0.31009c0,-0.15503 0,-0.62015 0,-1.08527c0,-0.31006 0,-0.46512 0,-0.62015c0,-0.15503 0,-0.46512 0,-0.77518c0,-0.46512 -0.15503,-0.77521 -0.15503,-1.08527c0,-0.31009 0,-0.46512 0,-0.77521c0,-0.46512 0,-0.93024 0,-1.08527c0,-0.15503 0,-0.15503 0,-0.15503c0,0 0,0 0,0.46509c0,0.62018 0.05569,1.40335 0.15503,2.0155c0.07852,0.48395 0.15503,0.77521 0.15503,0.93024c0,0.31009 0.07538,0.43781 0.15503,0.77521c0.03561,0.15088 0,0.15503 0,0.31006c0,0 0,0 0,0c0,0.15506 0,0.46512 0,0.77521c0,0.31006 0,0.46512 0,0.62015c0,0.15503 0,0.15503 0,0.15503c0,0.15506 -0.15503,0.46512 -0.31006,0.77521c0,0 0,0.15503 0,0.15503c0,0.15506 0,0.15506 0,0.15506c-0.15503,0 -0.15503,-0.15506 -0.15503,-0.15506c0,-0.31006 -0.11945,-0.46927 -0.15506,-0.62015c-0.07965,-0.3374 -0.17297,-0.92462 -0.31006,-1.39536c-0.17874,-0.61374 -0.23044,-1.05795 -0.31009,-1.39532c-0.03561,-0.15091 -0.15503,-0.46512 -0.15503,-0.93024c0,-0.15506 -0.07114,-0.41757 -0.15506,-0.62015c-0.11868,-0.28647 0,-0.62018 0,-0.93024c0,-0.31009 0,-0.46512 0,-0.77521c0,-0.31006 0,-0.62015 0,-0.93024c0,-0.46512 0,-0.62015 0,-0.77518c0,-0.15503 0,-0.31009 0,-0.46512c0,-0.31009 0,-0.46512 0,-0.62015c0,-0.15506 0,-0.15506 0,-0.15506c0,0 0,-0.15503 0,-0.15503c0,-0.15503 -0.03561,-0.15088 0,0c0.07965,0.33743 0.15506,0.77521 0.31009,1.39536c0.15503,0.62015 0.43253,0.94241 0.62015,1.39536c0.13266,0.32028 0.2262,0.41757 0.31009,0.62015c0.05933,0.14322 0,0.31006 0,0.46512c0,0.15503 0,0.15503 0,0.31006c0,0 0.04541,0.10962 0.15503,0c0.10962,-0.10962 0,-0.15503 0,-0.46512c0,-0.15503 0,-0.62015 0,-0.93021c0,-0.62018 0,-1.24033 0,-1.70544c0,-0.46512 0,-0.93024 0,-1.2403c0,-0.46512 -0.08054,-1.09128 -0.15503,-1.55038c-0.07852,-0.48395 -0.15503,-0.77521 -0.15503,-0.93024c0,-0.31009 0,-0.46512 0,-0.62015c0,-0.15506 0,-0.15506 0,-0.15506c0,0 -0.05682,0.15854 0,0.62018c0.07809,0.63443 0.31006,1.2403 0.46509,1.70541c0.15506,0.46512 0.31009,0.77518 0.31009,1.08527c0,0.31009 0.15503,0.46512 0.15503,0.77521c0,0.31006 0.15506,0.62015 0.15506,0.62015c0,0.15503 0.04541,0.20044 0.15503,0.31006c0.21927,0.21927 0.15503,0.62018 0.15503,0.77521c0,0 0,0.15503 0,0.15503c0,0 0,0 0,-0.15503c0,0 -0.07114,-0.10751 -0.15503,-0.31009c-0.05933,-0.14322 0,-0.31006 -0.15503,-0.31006l0,-0.15506l0,0" id="svg_16" stroke="#000000" fill="none"/>
   <path d="m348.06116,287.44119c0,0 0,0.15503 0,0.15503c0,0.31009 0,0.77521 0,1.24033c0,0.77518 0,1.39536 0,2.17053c0,0.77521 0,1.2403 0,1.55038c0,0.31009 0,0.46512 0,0.62015c0,0.15506 0,0.15506 0,0.15506c0,0 -0.02484,0.31207 0,0.46512c0.07855,0.48392 0.23044,0.74786 0.31009,1.08527c0.07123,0.30176 0.07538,0.74786 0.15503,1.08527c0.07123,0.30176 0,0.46512 0,0.62015c0,0 0.15506,0.15503 0.15506,0.31009c0,0.46512 0.15503,0.77518 0.15503,1.08527c0,0.31006 0,0.46512 0,0.77518c0,0.15506 0,0.46512 0,0.62015c0,0.31009 0,0.77521 0,1.0853c0,0.31006 0,0.46512 0,0.46512c0,0.15503 0,0 0,-0.15506c0,-0.31006 0,-0.77518 0,-1.70541c0,-0.93024 0,-1.70541 0,-2.32559c0,-0.46512 0,-0.62015 0,-0.62015c0,0 0,0 0,0c0,0.31009 0.1774,0.76501 0.31006,1.08527c0.18762,0.45297 0.10742,0.80405 0.31009,1.08527c0.1282,0.17789 0.15503,0.31009 0.15503,0.31009c0,0 0.02682,0.1322 0.15506,0.31009c0.2027,0.28122 0.23041,0.59283 0.31006,0.93021c0.03561,0.15091 0.15506,0.31009 0.15506,0.31009c0,0 -0.15506,-0.15503 -0.15506,-0.31009c0,-0.15503 -0.155,-0.31006 -0.31006,-0.46512c-0.15506,-0.15506 -0.31009,-0.31006 -0.46512,-0.46509c0,0 0,-0.15506 -0.15506,-0.15506c0,0 -0.15503,0 -0.15503,0c0,0.15506 0,0.15506 0,0.15506c0,0.15503 0,0.31006 0,0.46509c0,0.15506 -0.05933,0.16687 0,0.31009c0.08389,0.20255 0.15503,0.15503 0.15503,0.31009c0,0.15503 0,0.15503 0,0.31006c0,0.31009 -0.15503,0.46512 -0.15503,0.62018c0,0.15503 0,0.15503 0,0.15503c0,0 -0.07114,-0.04752 -0.15503,0.15503c-0.05933,0.14322 0,0.15503 0,0.31009c0,0 0,0 0,0.15503c0,0 0,0.15503 0,0.46512c0,0.15503 0,0.15503 -0.15503,0.31009c0,0 0,0 0,-0.15506c0,-0.15503 -0.07114,-0.41757 -0.15506,-0.62015c-0.11868,-0.28647 -0.07651,-0.60132 -0.15503,-1.08527c-0.04968,-0.30609 0,-0.62015 -0.15503,-0.77521c0,0 0,-0.15503 0,-0.31006c0,-0.15506 0,-0.31009 0,-0.31009c0,0 0,0.15503 0,0.31009c0,0.31006 0,0.77518 0,1.39536c0,0.62015 0,0.93021 0,1.08527c0,0.15503 0,0.15503 0,0.15503l0,0l0,0l0,0" id="svg_17" stroke="#000000" fill="none"/>
   <path d="m350.38675,281.8598c-0.15503,0 -0.1322,0.02682 -0.31009,0.15503c-0.28125,0.2027 -0.49194,0.28726 -0.62015,0.46512c-0.2027,0.28125 -0.20871,0.41946 -0.46512,0.77521c-0.2027,0.28122 -0.15503,0.46512 -0.31006,0.62015c0,0 0.00201,0.02484 0.15503,0c0.48395,-0.07852 1.05566,-0.51495 1.55038,-0.77518c0.73889,-0.38867 1.22192,-0.64966 1.70541,-0.93024c0.29987,-0.17401 0.46512,-0.15506 0.62015,-0.31009c0,0 -0.01636,0.08569 -0.15503,0.15503c-0.69336,0.34668 -1.74191,1.50943 -2.79068,2.48062c-0.80438,0.7449 -1.44138,1.49054 -1.86047,1.86047c-0.25992,0.22943 -0.46515,0.31009 -0.31009,0.31009c0.15506,0 -0.04968,-0.15906 0,-0.46512c0.07855,-0.48395 0.45233,-0.93903 0.77521,-1.39536c0.44772,-0.63281 0.77518,-1.08527 1.08527,-1.39536c0.15503,-0.15503 0.31009,-0.15503 0.31009,-0.15503c0,0 0,-0.15503 0,-0.15503c0,0 0.15503,0 0.15503,-0.15506c0,0 0,-0.15503 0,-0.15503c0.15503,-0.15503 0.46512,-0.46512 0.62015,-0.77521c0.15503,-0.31006 0.31009,-0.46512 0.46512,-0.62015c0,0 0,0 0,0c-0.15503,0 -0.16684,-0.05933 -0.31009,0c-0.20255,0.08389 -0.1322,0.33691 -0.31006,0.46512c-0.28125,0.2027 -0.64331,0.22858 -0.77521,0.31009c-0.29489,0.18225 -0.32187,0.40579 -0.46512,0.46512c-0.20255,0.08389 -0.15503,0.15503 -0.15503,0.15503c0,0 0,0 0,-0.15503c0,-0.15506 0.15503,-0.31009 0.46512,-0.62018c0.31009,-0.31006 0.46512,-0.46512 0.62015,-0.62015c0.15506,-0.15503 0.15506,-0.15503 0.15506,-0.15503c-0.15506,0 -0.31009,0 -0.31009,0c-0.15503,0 -0.0957,0.01181 -0.15503,0.15503c-0.08392,0.20258 -0.2775,0.47729 -0.46512,0.93024c-0.13269,0.32031 -0.31009,0.62015 -0.31009,0.77521c0,0.15503 -0.07538,0.28275 -0.15503,0.62015c-0.07123,0.30176 0,0.46512 0,0.62015c0,0 0,0.15503 0,0.15503c0,0.15506 0,0.15506 0,0.31009c0,0.15503 0.03561,0.31421 0,0.46512c-0.07965,0.33737 -0.03635,0.64377 -0.15503,0.93024c-0.08392,0.20258 -0.15506,0.31006 -0.15506,0.46512c0,0 0,0 0,0.15503c0,0.15503 0,0.31006 0,0.46512c0,0 0,0.15503 0,0.15503c0,0.15503 0,0.31009 0,0.46512c0,0.15503 0,0.15503 0,0.31009c0,0.15503 0,0.31006 0,0.62015c0,0 0,0.15503 0,0.15503c0,0 0,0 0,0c-0.15503,0 -0.08377,-0.16333 -0.15503,-0.46512c-0.07965,-0.33737 -0.23196,-0.60583 -0.31009,-1.2403c-0.05682,-0.46164 -0.0838,-0.78351 -0.15503,-1.08527c-0.07965,-0.3374 -0.15503,-0.46512 -0.15503,-0.46512c0,-0.15506 0,-0.15506 0,-0.15506c0,-0.15503 0,-0.15503 0,-0.31006c0,0 0,0 0,0.15503c0,0.15503 0.07651,0.44629 0.15503,0.93024c0.09933,0.61215 0.15503,1.2403 0.15503,1.86047c0,0.46509 0.15506,0.93021 0.15506,1.2403c0,0.15503 0,0.15503 0,0.31009c0,0 0,0 0,0c0,0 0,0.15503 0,0.31006c0,0.15506 0.15503,0.15506 0.15503,0.31009c0,0 0,0 0,0.15503c0,0.15503 0,0.15503 0,0.31009c0,0 0,0.15503 0,0.15503c0,0.31009 0,0.46512 0.15503,0.77521c0,0 0,0.15503 0,0.15503c0,-0.15503 0,-0.15503 0,-0.46512c0,0 -0.15503,-0.15503 -0.15503,-0.15503c0,-0.15506 0,-0.15506 0,-0.31009c0,0 0,-0.15503 0,-0.15503c0,0 0.05933,-0.16687 0,-0.31009c-0.08389,-0.20255 -0.15503,-0.31006 -0.15503,-0.46512c0,-0.15503 0,-0.15503 0,-0.15503c0,0 0,0 0,-0.15503c0,0 0,0 0,0.15503c0,0 0,0 0,0.15503c0,0 0,0.15506 0,0.31009c0,0 0,0.15503 0,0.31006c0,0 0,0.15506 0,0.15506c0,0.15503 0,0.31006 0,0.46512c0,0.15503 0,0.15503 0,0.15503c0,0.15503 0,0.15503 0,0.15503c0,0 0,0.15506 0,0.46512c0,0.31009 0,0.46512 0,0.62015c0,0.15506 0,0.15506 0,0.31009l-0.15506,0l0,-0.15503" id="svg_18" stroke="#000000" fill="none"/>
   <path d="m378.2937,307.1311c0,0 0,0.15503 0,0.46512c0,0.46509 0,0.77518 0,1.2403c0,0.31009 0,0.62015 0,1.08527c0,0.31009 0,0.77521 0,1.24033c0,0.15503 0,0.31006 0,0.31006c0,0.15503 0,0 0,0c0,-0.15503 0,-0.15503 0,-0.31006c0,-0.15506 0,-0.46512 0,-0.77521c0,-0.31009 0,-0.46512 0,-0.62015c0,-0.15503 0,-0.15503 0,-0.15503c0,0 0,0 -0.15506,0c0,0 -0.04541,-0.10962 -0.15503,0c-0.21924,0.21924 -0.23898,0.57404 -0.46512,1.08527c-0.25861,0.58459 -0.46512,1.39532 -0.62015,1.86044c-0.15503,0.46512 -0.20047,0.82062 -0.31009,0.93024c-0.10962,0.10962 -0.15503,0 -0.15503,-0.15503c0,-0.15503 0,-0.31009 0,-0.46512c0,-0.31009 0.15503,-0.62015 0.15503,-0.77521c0,-0.15503 0.2262,-0.4176 0.31009,-0.62015c0.11865,-0.28647 0.11942,-0.46927 0.15503,-0.62015c0.07965,-0.3374 0.31009,-0.31009 0.31009,-0.46512c0,0 0.07114,-0.10751 0.15503,-0.31009c0.11865,-0.28647 0.22617,-0.5726 0.31009,-0.77518c0.05933,-0.14322 0,-0.15503 0,-0.15503c0,-0.15506 0,-0.15506 0,-0.15506c0,0 0,0 0,0c0,-0.31006 0,-0.46512 0,-0.46512c0,-0.15503 0,-0.15503 0,-0.15503c0,0 0.04541,0.04541 0.15503,0.15503c0.10965,0.10965 0.07114,0.4176 0.15503,0.62018c0.11865,0.28647 0.15506,0.46512 0.31009,0.77518c0.15503,0.31009 0.15503,0.62015 0.31009,0.77521c0.15503,0.15503 0.15503,0.31006 0.15503,0.31006c0.15503,0 0.15503,0 0.15503,0c0,0 0.05933,-0.16684 0,-0.31006c-0.08389,-0.20258 -0.03638,-0.33368 -0.15503,-0.62018c-0.08389,-0.20255 -0.15503,-0.46509 -0.15503,-0.62015c0,-0.15503 0,-0.15503 0,-0.31006c0,0 0,0 0,-0.15506c0,-0.15503 0,-0.31006 0,-0.46512c0,0 0,0 0,0c0,0.31009 -0.07123,0.47342 0,0.77521c0.07965,0.3374 0.31006,0.77518 0.62015,1.08527c0.15503,0.15503 0.15503,0.31009 0.31006,0.46512c0,0 0,0 0,0.15503c0,0 0.15506,0.15506 0.15506,0.15506c0,0.15503 0,0.15503 0,0.15503c0.15503,0 0.15503,0 0.15503,0c0,0 0.22617,0.10748 0.31009,0.31006c0.05936,0.14325 0.15503,0.15506 0.15503,0.31009c0,0 0,0 0,0c0,0 0,0.15503 0.15503,0.31009c0,0 0.15503,0.15503 0.15503,0.15503c0.15506,0 0.15506,0 0,0c0,0 -0.15503,0 -0.31006,0c-0.15503,0 -0.3219,0.05933 -0.46512,0c-0.20255,-0.08389 -0.31009,-0.15503 -0.46512,-0.15503c-0.15503,0 -0.15503,0 -0.15503,0l-0.15506,0l0,-0.15506l0,-0.31006" id="svg_19" stroke="#000000" fill="none"/>
   <polyline stroke-linecap="round" id="svg_20" points="390.69677655253395,309.61171086363987 390.69677655253395,309.61171086363987 " stroke="#000000" fill="none"/>
   <path d="m380.15414,311.47217c0,0 0,0 -0.15503,0c-0.15503,0 -0.15503,0 -0.31009,0c-0.15503,0 -0.15503,0 -0.31006,0c-0.15506,0 -0.15506,0 -0.15506,0l0,0l0,0.15503l0,0" id="svg_21" stroke="#000000" fill="none"/>
   <path d="m406.66574,308.06131c0,-0.15503 0,-0.62015 0,-1.2403c0,-0.46512 0,-0.93024 0,-1.39536c0,-0.31006 0,-0.62015 0,-0.77518c0,-0.31009 0.15503,-0.46512 0,-0.46512c-0.15503,0 0.10751,0.31757 0,1.08527c-0.15656,1.11777 -0.38959,2.17996 -0.62015,3.72092c-0.11697,0.78186 -0.31009,1.86047 -0.31009,2.48062c0,0.46512 0,0.62015 0,0.77521c0,0 0,0.15503 0,0c0,-0.15506 0,-0.77521 0,-1.55038c0,-0.77521 0,-1.86047 0,-2.79071c0,-0.77518 0.23044,-1.36804 0.31009,-1.70541c0.07126,-0.30179 0.08377,-0.47342 0.15503,-0.77521c0.07965,-0.3374 0.23044,-0.59283 0.31009,-0.93024c0.03561,-0.15088 0.08377,-0.47339 0.15503,-0.77518c0.07965,-0.33743 0.15506,-0.62015 0.15506,-0.77521c0,0 0.15503,0 0.15503,0.46512c0,0.93024 0,2.32559 0,3.56589c0,1.08527 -0.10156,2.04294 0.15503,2.79071c0.11252,0.32791 0.15506,0.62015 0.15506,0.62015c0,0.15503 0,0.15503 0,0.15503c0,0 0,-0.15503 0,-0.15503c0,-0.15503 0,-0.62015 0,-1.39536c0,-1.39532 0.13263,-2.48877 0,-3.56589c-0.07813,-0.63446 -0.15506,-1.2403 -0.15506,-1.70541c0,-0.46512 0,-0.77521 0,-0.93024c0,-0.15503 -0.15503,-0.31006 -0.15503,-0.31006c0,0 0,0 0,0.46509c0,0.62018 0.20477,1.539 0.46512,2.79071c0.19205,0.92331 0.20856,1.88791 0.46512,2.63565c0.11252,0.32791 0.15503,0.46512 0.15503,0.62015c0,0 0,0 0,-0.15503c0,-0.31009 0,-0.62015 0,-1.08527c0,-0.77521 -0.07733,-1.69714 -0.15503,-2.79071c-0.06595,-0.92786 0,-1.70541 0,-2.17053c0,-0.46512 0,-0.93024 0,-1.2403c0,-0.31009 0,-0.46512 0,-0.62015c0,-0.31009 0,-0.46512 0,-0.93024c0,-0.15506 0,-0.46512 0,-0.46512c0,0.15503 0,0.46512 0,1.08527c0,0.93024 0.07864,2.17432 0.15503,2.94574c0.07788,0.78668 0.15503,1.08527 0.15503,1.39532c0,0 0,0 0,-0.15503c0,-0.15503 0,-0.46512 0,-0.93024c0,-0.46512 0.07541,-0.74783 0.15506,-1.08527c0.10687,-0.45267 0.07538,-0.74786 0.15503,-1.08527c0.07123,-0.30179 0,-0.62015 0,-0.62015c0,-0.15503 0,-0.15503 0,-0.15503c0,0 0,-0.15506 0,-0.15506c0,0 0.15503,-0.15503 0.15503,-0.46512c0,-0.15503 0,-0.15503 0.15506,-0.31006c0,0 0,0 0,0c0,0 0,0.15503 0,0.46512c0,0.31006 0,0.93021 0,1.39532c0,0.31009 0,0.62018 0,0.62018c0,0.15503 0,0.15503 0,0c0,0 0,-0.15506 0,-0.31009c0,-0.15503 0,-0.31009 0,-0.46512c0,-0.15503 0.15503,-0.31009 0.15503,-0.46512c0,-0.31006 0.15503,-0.46512 0.15503,-0.77518c0,-0.15506 0,-0.31009 0,-0.46512c0,-0.15506 0,-0.31009 0,-0.31009c0.15503,-0.15503 0.15503,-0.31009 0.15503,-0.46512c0,-0.15503 0.15506,-0.31006 0.15506,-0.46512c0,0 0,0 0,0c0,-0.15503 0,-0.31006 0,-0.31006c0,-0.15506 0,-0.15506 0,-0.15506c0,0 0,-0.15503 0,-0.31006c0,-0.15506 0,-0.15506 0,-0.15506c0,-0.15503 0,-0.15503 0,-0.15503c0,0 -0.15506,0 -0.15506,0c0,0 0,0 0,0c0,0.15503 0,0.15503 0,0.31009c0,0.15503 0,0.31006 0,0.62015c0,0.31009 -0.15503,0.62015 -0.15503,0.93024c0,0.15503 -0.03638,0.48871 -0.15503,0.77518c-0.08389,0.20258 -0.15503,0.31009 -0.15503,0.46512c0,0.15506 -0.15506,0.15506 -0.15506,0.15506c0,0 0.05933,-0.01181 0,-0.15506c-0.08389,-0.20255 -0.22617,-0.4176 -0.31006,-0.62015c-0.11865,-0.2865 0,-0.62015 0,-0.77521c0,-0.31006 -0.15506,-0.62015 -0.15506,-0.93021c0,-0.31009 0.03561,-0.62433 0,-0.77521c-0.07965,-0.33737 -0.15503,-0.46512 -0.15503,-0.77518c0,-0.31009 0,-0.62018 0,-0.77521c0,-0.15503 -0.15506,-0.15503 0,-0.15503c0.15506,0 0,0 0,0c0,0.31006 0,0.77518 0,1.2403c0,0.62015 0,1.24033 0,1.86047c0,0.77518 0.15503,1.39536 0.15503,1.86047c0,0.31006 0,0.46509 0,0.62015c0,0 0,0 0,-0.31009c0,-0.62015 0,-1.08527 0,-1.55038c0,-0.46512 0,-0.77518 0,-0.93024c0,-0.31006 0,-0.62015 0,-0.77518c0,-0.15506 0,-0.31009 0,-0.31009c0,0 0,0 0,0c0.15506,0 0.15506,0 0.15506,0c0.15503,0.15503 0.15503,0.31009 0.31006,0.62015c0,0 0.04541,0.20044 0.15506,0.31009c0.10962,0.10962 -0.10965,0.20044 0,0.31009c0.10962,0.10962 0.15503,0.15503 0.15503,0c0,0 -0.07114,-0.10754 -0.15503,-0.31009c-0.05933,-0.14322 -0.09573,-0.3219 -0.15506,-0.46512c-0.08389,-0.20255 -0.0957,-0.3219 -0.15503,-0.46512c-0.08389,-0.20255 -0.15503,-0.31006 -0.15503,-0.31006c-0.15506,-0.15506 -0.2775,-0.32227 -0.46512,-0.77521c-0.13269,-0.32031 -0.31009,-0.62015 -0.46512,-0.93024c0,0 0,0 0,0c0,-0.15503 -0.15503,-0.15503 -0.15503,-0.15503c0,0 0,0 0,0c0,0 0.07538,0.12772 0.15503,0.46512c0.07123,0.30176 0.22617,0.72766 0.31006,0.93024c0.11865,0.28647 0,0.31006 0,0.31006c0,0 0,-0.46512 0,-1.08527c0,-0.62015 0,-1.08527 0,-1.55038c0,-0.15503 0,-0.15503 0,-0.15503c0,0 0,0 0,0c0,0.15503 0,0.15503 -0.15503,0.31006c0,0 0,0.15506 0,0.15506c-0.15503,0.15503 -0.10751,0.22617 -0.31006,0.31006c-0.14325,0.05933 -0.15506,0 -0.31009,0c-0.15503,0 -0.31009,0 -0.31009,0c0,0 -0.15503,0 -0.15503,0c0,0 0.23154,-0.01883 0.31009,0.46512c0.04968,0.30609 0.15503,0.62015 0.15503,1.08527c0,0.31009 0,0.62018 0,0.93024c0,0.15503 0,0.31009 0,0.31009c0,-0.15506 0,-0.15506 0,-0.31009c0,-0.15503 0,-0.46512 0,-0.62015c0,-0.31009 0,-0.62015 0,-0.77521c0,0 0,-0.15503 0,-0.15503c0,0 -0.15503,0 -0.15503,0.15503c0,0.31009 -0.08383,0.47342 -0.15506,0.77521c-0.07965,0.3374 -0.15503,0.46512 -0.15503,0.62015c0,0.15503 0,0.31009 0,0.31009c-0.15503,0 -0.15503,0 -0.15503,0c0,0 0.03561,-0.31424 0,-0.46512c-0.07965,-0.33743 -0.15506,-0.46512 -0.15506,-0.62015c0,-0.15506 0,-0.31009 0,-0.31009c0,-0.15503 0,0 0,0c0,0.31009 0.04541,0.5105 0.15506,0.62015c0.10965,0.10965 0,0.15506 0,0.15506c0,-0.31009 0,-0.77521 0,-1.0853c0,-0.31006 0,-0.46512 0,-0.46512c0,0 0,-0.15503 0,0c0,0.15506 0,0.31009 0,0.46512c0,0.15506 0,0.31009 0,0.46512c0,0.15506 0,0.31009 0,0.46512c0,0 0,-0.15503 0,-0.31006c0,-0.46512 0,-1.24033 0,-1.86047c0,-0.46512 0,-0.62015 0,-0.77521c0,0 0.15503,0.15506 0.15503,0.31009c0,0.31009 0.15503,0.93024 0.15503,1.39536c0,0.62015 0.17303,1.23468 0.31009,1.70541c0.17871,0.61374 0.23044,0.90289 0.31009,1.24033c0.03561,0.15088 0,0.15503 0,0.15503c0,-0.15503 0,-0.46512 0,-0.93024c0,-0.46512 0,-0.62015 0,-0.77518c0,-0.15506 0,-0.15506 0,-0.15506c0,0 0,0.31009 0,0.77521c0,0.31006 0,0.62015 0,0.77518c0,0.15506 0,0.15506 0,0.15506c0,-0.31009 0,-0.77521 0,-1.24033c0,-0.31006 0,-0.62015 0,-0.77518c0,-0.15506 0,-0.15506 0,0.15503c0,0.62015 0,1.39536 0,2.32556c0,0.62018 0,1.55042 0,2.0155c0,0.31009 0,0.46512 0.15503,0.62018c0,0 0.04968,-0.31409 0,-0.62018c-0.07852,-0.48392 -0.31009,-0.93021 -0.31009,-1.2403c0,-0.15503 0.15506,-0.31009 0,-0.31009c-0.15506,0 0,0.46512 0,0.93024c0,0.31009 0.11865,0.7988 0,1.08527c-0.08389,0.20258 -0.15503,0.31009 -0.15503,0.31009c0,0 -0.04541,0.10962 -0.15503,0c-0.32889,-0.32889 -0.06033,-1.24609 -0.15506,-2.0155c-0.07809,-0.63443 -0.15503,-1.08527 -0.15503,-1.39536c0,0 0,0 0,0c0,0 0,0 0,0c0,0.15506 0,0.46512 0,0.77521c0,0.46512 0,0.93024 0,1.39536c0,0.31006 0,0.46509 0,0.46509c0,0.15506 0,0.15506 0,0.15506c0,0 -0.23196,-0.29578 -0.31009,-0.93024c-0.07578,-0.61551 0,-1.24033 0,-1.55038c0,-0.31009 0,-0.46512 0,-0.46512c0,-0.15503 0,-0.15503 0,-0.15503c0,-0.15506 0,-0.15506 0,-0.15506c0,0 0,0 0,-0.15503c0,0 0.15503,-0.15503 0,-0.15503c-0.15503,0 0,0.15503 0,0.62015c0,0.15503 0,0.46512 0,0.62015c0,0.31009 0,0.62015 0,0.93024c0,0.31009 0.02484,0.62216 0,0.77521c-0.07852,0.48392 -0.09821,0.93369 -0.15503,1.39532c-0.07809,0.63443 -0.15503,0.93024 -0.15503,1.24033c0,0.15503 0,0.31006 0,0.31006c0,0 0,0 0,0.15506c0,0 0,-0.15506 -0.15506,-0.15506l0,-0.15503l0,-0.31009l-0.15503,-0.31006" id="svg_22" stroke="#000000" fill="none"/>
   <path d="m424.18512,294.728c0,0 0,0 0,0.31009c0,0.31009 0,0.46512 0,0.93024c0,0.31006 0,0.77518 0,1.08527c0,0.46512 0,0.62015 0,0.93024c0,0.31006 0,0.62015 0,0.93024c0,0.15503 0,0.46509 0,0.62015c0,0.15503 0,0.46512 0,0.77518c0,0.15506 0,0.46512 0,0.62018c0,0 -0.05933,0.16684 0,0.31006c0.08389,0.20255 0.15503,0.31009 0.15503,0.46512c0,0.15503 0,0.31009 0,0.31009c0,0.15503 0.07538,0.28275 0.15503,0.62015c0.07123,0.30176 0,0.62015 0,0.77518c0,0.31009 0,0.62018 0,0.77521c0,0.15503 0.15506,0.46512 0.15506,0.62015c0,0.31009 -0.07123,0.62845 0,0.93024c0.07965,0.3374 0.15503,0.46512 0.15503,0.77518c0,0.15506 0,0.46512 0,0.62018c0,0.15503 0,0.31006 0,0.46512c0,0.15503 0,0.31006 0,0.46509c0,0.15506 0,0.31009 0,0.46512c0,0.15506 0,0.31009 0,0.31009c0,0.15503 0,0.31009 0,0.46512c0,0.15503 0,0.15503 0,0.31009c0,0 0,0 -0.15503,0c0,0 0,-0.15506 0,-0.15506c-0.15506,-0.15503 -0.15506,-0.46512 -0.15506,-0.62015c0,-0.46512 -0.15503,-0.93024 -0.15503,-1.39536c0,-0.46512 0,-0.93024 0,-1.2403c0,-0.31009 0,-0.77521 0,-1.08527c0,-0.46512 -0.15503,-0.77521 -0.15503,-1.08527c0,-0.31009 0,-0.46512 0,-0.62018c0,-0.15503 0,-0.31006 0,-0.46512c0,-0.31006 0,-0.62015 0,-0.77518c0,-0.15503 -0.11865,-0.33368 0,-0.62015c0.08389,-0.20258 0.22617,-0.4176 0.31006,-0.62015c0.05933,-0.14325 -0.05933,-0.16687 0,-0.31009c0.08392,-0.20258 0.10538,-0.46912 0.15506,-0.77521c0.07852,-0.48395 0.0838,-0.93851 0.15503,-1.2403c0.07965,-0.3374 0.15503,-0.62015 0.15503,-0.93024c0,-0.15503 0.15506,-0.46512 0.15506,-0.62015c0,0 0,-0.15503 0,-0.15503c0,-0.31009 0,-0.46512 0,-0.77521c0,-0.15503 0,-0.31009 0,-0.31009c0,-0.15503 0,-0.15503 0,-0.15503c0,0 0,-0.15503 -0.15506,-0.31006c0,0 -0.04541,-0.04544 -0.15503,-0.15506c-0.10962,-0.10962 -0.15503,-0.31006 -0.15503,-0.31006c0,0 0,0 -0.15506,0c0,0 -0.15503,0 -0.15503,0c0,0 -0.15503,0 -0.15503,0c0,0 -0.15506,0.15503 -0.31009,0.15503c0,0 -0.15503,0.15503 -0.15503,0.15503c0,0 0,0.15506 0,0.15506c0,0.15503 0,0.31006 0,0.46509c0,0.15506 0.07538,0.28278 0.15503,0.62018c0.07123,0.30176 0,0.62015 0,0.93024c0,0.15503 0,0.31006 0,0.46509c0,0.15506 0,0.46512 0,0.77521c0,0.31009 0,0.46512 0,0.62015c0,0.15503 0,0.31009 0,0.46512c0,0.31009 0,0.46512 0,0.77521c0,0.15503 0,0.46512 0,0.77518c0,0.15503 0,0.46512 0,0.62015c0,0.15506 0,0.31009 0,0.62018c0,0.15503 0,0.31006 0,0.46509c0,0.15506 0,0.31009 0,0.46512c0,0 0,0.15506 0,0.15506c0,0 0,0 0,0.15503c0,0 0,0 0,0c0,0 0,0 0,0c-0.15503,0.15503 -0.15503,0.31009 -0.15503,0.46512c0,0.15503 0,0.46512 0,0.62015c0,0 0,0.15503 0,0.15503c0,0 -0.15506,0 -0.15506,0c0,0 0.05933,-0.01181 0,-0.15503c-0.08389,-0.20255 -0.23041,-0.28278 -0.31006,-0.62015c-0.03561,-0.15088 -0.07114,-0.26257 -0.15503,-0.46512c-0.11865,-0.2865 0,-0.46512 -0.15506,-0.77521c-0.15503,-0.31006 -0.15503,-0.62015 -0.15503,-0.77518c0,-0.15503 0,-0.31009 0,-0.46512c0,-0.15503 0,-0.31009 0,-0.62015c0,-0.46512 0,-0.77521 0,-1.08527c0,-0.31009 0,-0.46512 0,-0.77521c0,-0.31006 -0.05933,-0.47693 0,-0.62015c0.08389,-0.20255 0.11942,-0.31424 0.15503,-0.46512c0.07965,-0.33743 0.15506,-0.46512 0.15506,-0.62015c0,-0.15503 0,-0.15503 0.15503,-0.15503c0,0 0,0 0,0.15503c0,0.15503 0.15503,0.31006 0.15503,0.62015c0,0.15503 -0.03561,0.46927 0,0.62015c0.07965,0.3374 0.23044,0.5928 0.31009,0.93024c0.07126,0.30179 0.15503,0.62015 0.15503,1.08527c0,0.31009 -0.07123,0.62845 0,0.93024c0.07965,0.3374 0.15503,0.46512 0.15503,0.62015c0,0.31009 0.10538,0.62415 0.15506,0.93024c0.07852,0.48395 0.23883,0.93854 0.31006,1.2403c0.07965,0.33743 0.15506,0.62018 0.15506,0.77521c0,0.15503 0,0.15503 0,0.15503c0,0.15506 0,0.31009 0,0.62018c0,0.46509 0,0.77518 0,1.08527c0,0.15503 0,0.31006 0,0.46512c0,0.15503 0,0.46509 0,0.62015c0,0.31006 0.05933,0.47693 0,0.62015c-0.08392,0.20258 -0.15506,0.15503 -0.15506,0.15503c0,0 0,0.15506 0,0.15506c0,0.15503 0,0.46512 0,0.77518c0,0.31009 -0.15503,0.31009 -0.15503,0.46512c0,0 0,0.15503 0,0.15503c-0.15503,0.15506 -0.15503,0.15506 -0.15503,0.15506c-0.15506,0 -0.09573,-0.01181 -0.15506,-0.15506c-0.08389,-0.20255 -0.03638,-0.33365 -0.15503,-0.62015c-0.08389,-0.20255 -0.15503,-0.62015 -0.15503,-0.93024c0,-0.31006 0,-0.46512 0,-0.62015c0,-0.15503 -0.04584,-0.62241 0,-1.08527c0.07788,-0.78671 0.23154,-1.37653 0.31006,-1.86047c0.04965,-0.30606 0.15506,-0.77518 0.15506,-1.39532c0,-0.77521 0,-1.24033 0,-1.70544c0,-0.31006 0.07123,-0.47342 0,-0.77518c-0.07965,-0.33743 -0.09573,-0.63196 -0.15506,-0.77521c-0.08389,-0.20255 -0.15503,-0.15503 -0.15503,-0.31006c0,0 0.05933,-0.01181 0,-0.15506c-0.08389,-0.20255 -0.15503,-0.15503 -0.15503,-0.15503c0,0 -0.04541,-0.10965 -0.15506,0c-0.10962,0.10962 0,0.31009 0,0.77521c0,0.31006 -0.07651,0.75635 -0.15503,1.2403c-0.07449,0.45911 0,0.77518 -0.15503,0.93024c0,0 0,0.15503 0,0c0,0 0.11865,-0.33368 0,-0.62015c-0.08389,-0.20258 -0.1774,-0.4549 -0.31009,-0.77521c-0.18762,-0.45294 -0.26242,-0.95905 -0.46512,-1.2403c-0.1282,-0.17789 -0.15503,-0.31009 -0.15503,-0.46512c0,0 0,-0.15506 0,-0.31009c0,-0.15503 -0.15503,-0.31009 -0.15503,-0.46512c0,-0.31006 0,-0.62015 0,-0.93024c0,-0.15503 0,-0.31006 0,-0.46512c0,-0.15503 0,-0.31006 0,-0.31006c0,0 0,0.15503 0,0.46512c0,0.15503 0,0.31006 0,0.46512c0,0.15503 0,0.31006 0,0.62015c0,0.15503 0,0.31006 0,0.46512c0,0.15503 0,0.31006 0,0.46512c0,0 -0.15506,0 -0.15506,0c0,0 0,0 0,-0.15506c0,0 -0.15503,-0.31006 -0.15503,-0.46512c0,-0.15503 0,-0.31006 0,-0.62015c0,-0.31006 0,-0.46512 0,-0.62015c0,0 0,0 0,0c0,0 0,0 0,-0.15503c0,0 0,0 0,0c0,0 0,-0.15506 0,-0.15506c0,0 0,0 0,-0.15503c0,0 -0.15503,0 -0.15503,0c0,0 0,0.15503 0,0.31009c0,0.31006 0,0.62015 0,0.93024c0,0.15503 0,0.31006 0,0.46509c0,0.15506 0,0.15506 0,0.15506c0,0.15503 0,0.15503 0,0.15503c0,0 0,0.15503 0,0.15503c0,0 0,0 0,0c0,0.15506 0,0.15506 0,0.15506c0,0 0,0 0,0.15503c0,0 0,0.15503 0,0.31009c0,0 -0.15503,0 -0.15503,0c0,0 0,0 0,0c0,0 -0.15506,-0.15506 -0.15506,-0.31009c0,0 -0.15503,-0.15503 -0.15503,-0.31009c0,-0.15503 0,-0.31006 0,-0.46512c0,-0.15503 0,-0.31006 0,-0.31006c0,-0.15503 0,-0.15503 0,-0.31009c0,0 0,-0.15503 0,-0.15503c0,-0.15503 0,-0.15503 0,-0.15503c0.15503,0 0.15503,0 0.15503,-0.15506c0,0 0,0 0,0c0,0 0,0 0,-0.15503c0,0 0,0 0,0c0,0 0,0 0,0c-0.15503,0.15503 -0.15503,0.15503 -0.15503,0.31009c0,0.15503 -0.15503,0.15503 -0.15503,0.31006c0,0.15506 0,0.15506 -0.15506,0.15506c0,0 0,0 -0.15503,0.15503c0,0 0,0 0,0.15503c0,0 0.05933,0.3219 0,0.46512c-0.08389,0.20255 -0.15503,0.31009 -0.15503,0.46512c0,0 0,0 0,0c0,0.15503 0,0.15503 0,0.15503c0,0.15506 0,0.15506 0,0.15506c0,0 0,0 0,0c0,0 -0.05933,-0.16687 0,-0.31009c0.08389,-0.20255 0.25073,-0.3219 0.31006,-0.46512c0.08392,-0.20258 0.15506,-0.31009 0.31009,-0.46512c0,0 0,-0.15503 0,-0.15503c0,-0.15503 0.04755,-0.22617 -0.15503,-0.31009c-0.14325,-0.05936 -0.15506,0 -0.31009,0c-0.15503,0 -0.15503,0 -0.31009,0c-0.15503,0 -0.31006,0 -0.46512,0c0,0 -0.04541,-0.10962 -0.15503,0c-0.10965,0.10965 0,0.15506 0,0.31009c0,0 0,0.15503 0,0.15503c0,0.15503 0,0.15503 0,0.15503c0,0.15506 0,0.15506 0,0.31009c0,0.15503 0,0.31009 0,0.31009c0,0.15503 0,0.15503 0,0.15503c0,0 0,0.15503 0,0.15503c0,0 0,0 0.15503,0c0,0 0,0 0,0c0.15506,0 0.20047,-0.10962 0.31009,0c0.10965,0.10965 0.15503,0.15506 0.15503,0.31009l0,0l0,-0.15503" id="svg_23" stroke="#000000" fill="none"/>
   <path d="m417.82852,281.70477c0,0 0,0.15503 0,0.31006c0,0.15506 0,0.46512 0,0.62018c0,0.15503 0,0.46512 0,0.62015c0,0.31006 0,0.62015 0,0.77518c0,0.31009 0,0.46512 0,0.77521c0,0.31006 0,0.62015 0,0.77518c0,0.15506 0,0.31009 0,0.31009c0,0.15503 0.07114,0.26254 0.15506,0.46512c0.11868,0.28647 0,0.46512 0,0.62015c0,0 0.15503,0 0.15503,0.15503c0,0 0,-0.15503 0,-0.15503c0,-0.15503 0,-0.31006 0,-0.62015c0,-0.31009 0,-0.77521 0,-1.08527c0,-0.31009 0,-0.62015 0,-0.93024c0,-0.31009 -0.03561,-0.6243 0,-0.77521c0.07965,-0.33737 0.15503,-0.46509 0.15503,-0.62015c0,-0.31006 0.15503,-0.46512 0.15503,-0.62015c0,0 0,0 0,0c0,0.31009 0,0.62015 0,0.93024c0,0.46512 0,0.77518 0,1.2403c0,0.31009 0,0.77521 0,1.08527c0,0.31009 0,0.77521 0,1.0853c0,0.15503 0,0.31006 0,0.46509c0,0.15506 0,0.31009 0,0.46512c0,0.15506 0.05933,0.3219 0,0.46512c-0.08389,0.20258 -0.15503,0.15506 -0.15503,0.15506c0,0 0,0 0,0c0,0 -0.15503,0 -0.15503,-0.15506c0,-0.15503 -0.03635,-0.33368 -0.15503,-0.62015c-0.08392,-0.20258 -0.23044,-0.28278 -0.31009,-0.62015c-0.03561,-0.15088 0,-0.31009 0,-0.46512c0,-0.15503 0,-0.31009 0,-0.46512c0,-0.31009 0,-0.46512 0,-0.62015c0,-0.15506 0,-0.31009 0,-0.62015c0,-0.15506 0,-0.31009 0,-0.46512c0,-0.31009 -0.07114,-0.4176 -0.15503,-0.62018c-0.05933,-0.14322 -0.07114,-0.26251 -0.15506,-0.46509c-0.05936,-0.14325 -0.07114,-0.26257 -0.15503,-0.46512c-0.05933,-0.14325 -0.15503,-0.31009 -0.15503,-0.46512c0,-0.15506 -0.15506,-0.31009 -0.15506,-0.46512c0,0 0.05933,-0.01181 0,-0.15506c-0.08389,-0.20255 0,-0.31006 -0.15503,-0.31006c-0.15503,0 0,0.15503 0,0.46512c0,0.31006 0,0.62015 0,0.93024c0,0.31006 -0.07123,0.62845 0,0.93021c0.07965,0.3374 0.0838,0.62848 0.15503,0.93024c0.07965,0.33743 0.26044,0.77921 0.31009,1.08527c0.07852,0.48395 0.15503,0.77521 0.15503,1.0853c0,0 0,0.15503 0,0.15503c0,0 0,0.15503 0,0.31006c0,0.15506 0,0.31009 0,0.46512c0,0.15506 0,0.15506 0,0.15506c0,0 0,0 0,0c0,0 0,0 -0.15503,0c0,0 0,0 0,0c0,0 0,0.15503 0,0.15503c0,0 0,0.15503 0,0.15503c0,0 0,0 0,0c-0.15503,0 -0.15503,0 -0.15503,0c0,0 -0.15506,-0.15503 -0.15506,-0.15503c0,-0.15503 -0.15503,-0.46512 -0.15503,-0.62015c0,-0.15506 0,-0.15506 0,-0.46512c0,-0.15503 -0.15503,-0.31009 -0.15503,-0.46512c0,-0.15503 0,-0.31009 0,-0.46512c0,-0.15503 -0.15506,-0.46512 -0.15506,-0.62015c0,-0.15506 0,-0.31009 0,-0.31009c0,0 0,0 0,-0.15503c0,0 0,0 0,-0.15503c0,0 0,-0.15506 0,-0.15506c0,0 0,0 0,0c0,-0.15503 -0.07114,-0.26254 -0.15503,-0.46512c-0.05933,-0.14322 0,-0.31006 0,-0.46512c0,-0.15503 0,-0.46509 0,-0.62015c0,0 -0.07114,-0.10751 -0.15503,-0.31006c-0.05933,-0.14325 0.11865,-0.33368 0,-0.62018c-0.08389,-0.20255 -0.15503,-0.31006 -0.15503,-0.31006c0,0 0,0 0,0c0,0 -0.15506,0 -0.15506,0c0,0 -0.04538,-0.04541 -0.15503,-0.15506c-0.10962,-0.10962 -0.15503,0 -0.15503,0c-0.15506,0 -0.15506,0 -0.15506,0c-0.15503,0 -0.15503,0 -0.15503,0c-0.15503,0 -0.15503,0.15506 -0.31009,0.15506c0,0 0,0 -0.15503,0.15503c0,0 -0.15503,0 -0.31006,0.15503c0,0 -0.15506,0.15506 -0.15506,0.15506c-0.15503,0.15503 -0.15503,0.15503 -0.31006,0.15503c0,0 0,0.15503 0,0.15503c0,0 0,0 0,0.15506c0,0 0,0 0,0c0,0 -0.10962,0.04541 0,0.15503c0.10962,0.10962 0.26254,0.07114 0.46512,0.15503c0.14322,0.05933 0.31006,0 0.46509,0c0.31009,0 0.47693,0.05933 0.62018,0c0.20255,-0.08389 0.33368,-0.19138 0.62015,-0.31006c0.20258,-0.08392 0.31006,-0.15506 0.31006,-0.15506c0.15506,0 0.15506,0 0.15506,0c0,0 -0.15506,0.15506 -0.15506,0.15506c-0.15503,0 -0.48871,0.11868 -0.77518,0c-0.20258,-0.08392 -0.20047,-0.3555 -0.31009,-0.46512c-0.10962,-0.10962 -0.15503,-0.15506 -0.15503,-0.15506c-0.15503,0 -0.15503,0 -0.15503,0c-0.15506,-0.15503 -0.15506,-0.15503 -0.15506,-0.15503c0,0 0,0 -0.15503,0c0,0 0,0.15503 0,0.15503c0,0.15506 0,0.31009 -0.15503,0.46512c0,0 -0.15503,0.15506 -0.31009,0.15506c-0.15503,0 -0.31006,0 -0.46512,0c-0.15503,0 -0.10751,0.22617 -0.31006,0.31006c-0.14325,0.05933 -0.31009,0.15506 -0.31009,0.15506c0,0 -0.15503,0 -0.15503,0c0,0 0,0.15503 0,0.15503c0,0 0,0 0,0c0,0 0,0 0.15503,0c0,0 0.15503,0 0.46512,0c0.15503,0 0.47342,-0.07126 0.77521,0c0.33737,0.07965 0.46509,0.15503 0.77518,0.15503c0.15503,0 0.46512,0 0.77521,0c0.31006,0 0.62015,0 0.93021,0c0.15506,0 0.15506,0 0.31009,0c0,0 0,0 -0.15503,0c-0.15506,0 -0.31009,0 -0.62018,0c-0.15503,0 -0.46509,0 -0.77518,0c-0.31009,0 -0.46512,0 -0.62015,0c-0.15506,0 -0.31009,0 -0.62015,0.15503c-0.31009,0.15506 -0.55594,-0.06421 -0.77521,0.15506c-0.10962,0.10962 -0.15503,0.15503 -0.15503,0.15503c-0.15506,0 -0.10754,0.07114 -0.31009,0.15503c-0.14322,0.05933 -0.15503,0 -0.15503,0c0,0 0,0.15506 0,0.15506c0.15503,0 0.31006,0 0.46512,0c0.31006,0 0.46512,0 0.77518,0c0.15506,0 0.46512,0 0.77521,0c0.31006,0 0.46512,0 0.93024,0c0.31006,0 0.46509,-0.15506 0.77518,-0.15506c0,0 0.15503,0 0.15503,0c0,0 -0.15503,0 -0.46512,0c-0.15503,0 -0.46509,0 -0.62015,0c-0.15503,0 -0.46512,0 -0.62015,0c-0.31009,0 -0.62015,0 -0.93024,0c-0.31006,0 -0.59283,0.23044 -0.93024,0.31009c-0.15088,0.03561 -0.32187,0.09567 -0.46512,0.15503c-0.20258,0.08392 -0.35547,0.20047 -0.46509,0.31009c-0.10962,0.10962 0,0.15503 0,0.15503c0,0.15503 0,0.15503 0,0.15503c0.15503,0.15506 0.31006,0.15506 0.46509,0.15506c0.15506,0 0.31009,0 0.62018,0c0.15503,0 0.46512,0 0.77518,0c0.31009,0 0.77521,-0.15506 1.24033,-0.15506c0.31006,0 0.46512,0 0.46512,0c0.15503,0 0.31006,0 0.31006,0c-0.15503,0 -0.10748,0.07114 -0.31006,0.15506c-0.28647,0.11868 -0.62018,0 -0.77521,0c-0.15503,0 -0.46512,0 -0.62015,0c-0.46512,0 -0.93024,0 -1.24033,0c-0.31006,0 -0.46512,0 -0.46512,0c-0.15503,0 -0.15503,-0.15506 -0.15503,-0.15506c0,0 0.01181,0.05933 0.15503,0c0.20258,-0.08389 0.3219,-0.25073 0.46512,-0.31006c0.20258,-0.08389 0.31009,-0.15503 0.62018,-0.15503c0.31006,0 0.62015,0 0.77518,0c0.31009,0 0.46512,-0.15506 0.77521,-0.15506c0.15503,0 0.31006,0 0.46512,0c0,0 0.10965,0.04541 0,0.15506c-0.10965,0.10965 -0.4176,0.07114 -0.62018,0.15503c-0.14322,0.05933 -0.47693,0.0957 -0.62015,0.15503c-0.20255,0.08389 -0.20041,0.20044 -0.31006,0.31009c-0.10965,0.10965 -0.4176,0.22617 -0.62018,0.31006c-0.14322,0.05933 -0.31006,0.15506 -0.46512,0.31009c0,0 -0.15503,0 -0.15503,0c-0.15503,0 -0.31009,0 -0.31009,0c0,0.15503 0,0.15503 0,0.15503c0,0 0,0 0,0c0,0 0,0 0,0.15506c0,0 -0.04752,0.07114 0.15506,0.15503c0.14322,0.05933 0.31006,0.15503 0.46512,0.15503c0.15503,0 0.32187,0.05933 0.46512,0c0.20255,-0.08389 0.43781,-0.23041 0.77518,-0.31006c0.30179,-0.07126 0.44629,-0.07651 0.93024,-0.15506c0.30609,-0.04968 0.59283,-0.07538 0.93024,-0.15503c0.30176,-0.07123 0.46512,0 0.62015,0c0.15503,0 0.31009,0.15506 0.31009,0c0,-0.15506 -0.31009,0 -0.46512,0c-0.62018,0 -0.77521,0 -0.93024,0c-0.15503,0 -0.31009,0 -0.46512,0c-0.31009,0 -0.6243,-0.03561 -0.77521,0c-0.33737,0.07965 -0.5928,0.23044 -0.93021,0.31009c-0.15091,0.03564 -0.3219,0.0957 -0.46512,0.15503c-0.20258,0.08389 -0.15506,0.15503 -0.15506,0.31009c0,0 0.05933,0.16684 0,0.31006c-0.08389,0.20255 -0.15503,0.31009 -0.15503,0.31009c0,0.15503 0,0.15503 0,0.15503c0,0 0,0.15503 0,0.15503c0,0.15506 0,0.15506 0,0.31009c0,0 0.15503,0 0.15503,0c0.15506,0 0.46512,0 0.62018,0c0.31006,0 0.62015,0 1.08527,0c0.31006,0 0.6243,-0.11942 0.77518,-0.15503c0.33743,-0.07965 0.31009,-0.15506 0.46512,-0.31009c0,0 0,0 0,-0.15503c0,0 0,0 0,-0.15506c0,0 0,-0.15503 0,-0.15503c-0.15503,-0.15503 -0.31006,-0.15503 -0.46512,-0.15503c-0.31006,0 -0.62015,-0.15503 -0.93024,-0.15503c-0.15503,0 -0.31006,0 -0.31006,0c0,0 -0.0957,0.01181 -0.15503,0.15503c-0.08392,0.20258 -0.31006,0.31006 -0.46512,0.46512c-0.15506,0.15506 -0.15506,0.15503 -0.31009,0.31006c0,0 0,0 0,0.15506c0,0 -0.05933,0.01181 0,0.15503c0.08389,0.20255 0.10748,0.22617 0.31009,0.31009c0.14322,0.05933 0.15503,0 0.15503,0c0.15503,0 0.15503,0 0.46512,0c0.15503,0 0.26251,-0.07114 0.46512,-0.15506c0.14322,-0.05933 0.31006,-0.15503 0.46512,-0.15503c0.15503,0 0.31006,-0.15503 0.46512,-0.15503c0,0 0.15503,-0.15506 0.15503,-0.15506c0.15503,0 0.31006,-0.15503 0.31006,-0.15503c0,0 0,0 0,-0.15503c0,-0.15506 0,-0.31009 -0.15503,-0.31009c0,0 -0.15503,-0.15503 -0.31006,-0.15503c-0.15506,0 -0.46512,0 -0.62018,0c-0.15503,0 -0.31006,0.15503 -0.31006,0.15503c0,0.15503 -0.23044,0.28278 -0.31009,0.62015c-0.03561,0.15091 0,0.31009 0,0.46512c0,0 0,0.15506 0.15503,0.15506c0.31009,0 0.46512,0 0.77521,-0.15506c0.31009,-0.15503 0.77518,-0.15503 1.08527,-0.15503c0.31009,0 0.46512,0 0.46512,0c0.15503,0 0.31009,0 0.31009,0c0,0 0.05933,0.01181 0,0.15503c-0.08392,0.20261 -0.15506,0.15506 -0.31009,0.31009c0,0 -0.15503,0 -0.31009,0c-0.15503,0 -0.31006,0 -0.46512,0c-0.15503,0 -0.31006,0 -0.31006,0c-0.15503,0 -0.15503,0 -0.31009,0c0,0 -0.15503,0 -0.46512,0c-0.15503,0 -0.31006,0 -0.46512,0c-0.15503,0 -0.31006,0 -0.31006,0c-0.15503,0 -0.31009,0 -0.31009,0c-0.15503,0 -0.15503,0.15503 -0.15503,0.15503c0,0 0,0 0,0c0,0 0,0 0,0.15503c0,0 0,0 0,0l0,0" id="svg_24" stroke="#000000" fill="none"/>
   <path d="m380.46423,311.47217c-0.15503,0 -0.15503,0 -0.31009,0c-0.15503,0 -0.31006,0 -0.46512,0c-0.31006,0 -0.46512,0 -0.77518,0c-0.15503,0 -0.15503,0 -0.31009,0c-0.15503,0 -0.31006,0 -0.46512,0l0,0" id="svg_25" stroke="#000000" fill="none"/>
   <path d="m412.71225,282.94507c0,0 0,0 0,0c0,0.15506 0,0.15506 0,0.31009c0,0 0,0 0,0c0,0 0,0 0,0c0.15503,0.15503 0.15503,0.15503 0.15503,0.31006c0,0 0,0 0,0c0,0.15506 0,0.15506 0,0.15506c0,0 0.04544,0.20044 0.15506,0.31006c0.10962,0.10962 0.15503,0.15506 0.15503,0.15506c0,0.15503 0,0.15503 0,0.15503c0,0.15503 0,0.31009 0,0.46512l0,0l0,0" id="svg_26" stroke="#000000" fill="none"/>
   <path d="m435.3479,281.54971c0,0 0,0 0,0c0.31006,0 0.63196,0.09573 0.77518,0.15506c0.20255,0.08389 0.20047,0.20044 0.31009,0.31006c0.10962,0.10962 0.16684,-0.05933 0.31006,0c0.20261,0.08392 0.31009,0.31009 0.62018,0.31009c0,0 0.15503,0 0.31006,0c0,0 0.15503,0.15503 0.15503,0.15503c0.15506,0 0.16687,-0.05933 0.31009,0c0.20258,0.08392 0.31009,0.15506 0.46512,0.31009c0,0 0.15503,0 0.15503,0c0,0 -0.10962,0.04541 0,0.15503c0.10965,0.10965 0.15506,0 0.15506,0c0,0 0,0 0,0c-0.15506,0 -0.15506,0 -0.31009,0c-0.15503,0 -0.31009,0 -0.62015,0c-0.31009,0 -0.62015,0 -0.77521,0c-0.46512,0 -0.93625,-0.08054 -1.39532,-0.15503c-0.48395,-0.07852 -0.93024,-0.15503 -1.0853,-0.15503c-0.15503,0 -0.15503,0 -0.15503,0c0,0 0,0 0.15503,0c0.15506,0 0.15506,0 0.31009,0c0.15503,0 0.15503,0 0.31009,0c0.15503,0 0.46512,0 0.62015,0c0.15503,0 0.4176,0.07114 0.62015,0.15503c0.2865,0.11865 0.46512,0 0.46512,0c0.15503,0 0.31009,0 0.31009,0c0,0 0,0.15503 0,0.15503c0.15503,0 0.15503,0 0.31006,0c0,0 0.04541,-0.10962 0.15503,0c0.10965,0.10965 0,0.15506 0,0.15506c0.15506,0 0.15506,0 0.31009,0c0.15503,0 0.04541,0.04541 0.15503,0.15503c0.10965,0.10965 0.15506,0 0.15506,0c0,0 0,0 0,0c-0.15506,0 -0.15506,0 -0.31009,0c-0.15503,0 -0.31009,0 -0.31009,0c-0.15503,0 -0.15503,0 -0.15503,0c0,0 -0.15503,0 -0.15503,0c0,0 -0.26465,0.04541 -0.15503,0.15503c0.10962,0.10962 0.31006,0 0.31006,0c0.15503,0 0.15503,0 0.31009,0c0.15503,0 0.26254,0.07114 0.46512,0.15503c0.14322,0.05933 0.31006,0 0.62015,0c0,0 0.15503,0 0.15503,0c0.15506,0 0.15506,0 0.31009,0c0.15503,0 0.15503,0 0.31006,0c0,0 0.15506,0 0.15506,0c0.15503,0.15506 0.15503,0.15506 0.15503,0.15506c0,0 0.15503,0 0.15503,0c0.15506,0.15503 0.16687,0.0957 0.31009,0.15503c0.20255,0.08389 0.20044,0.04538 0.31009,0.15503c0.10965,0.10965 0,0.15506 0.15503,0.15506c0,0 0,0 0,0c0,0.15503 0,0.15503 0,0.15503c0,0 0.04541,0.04541 0.15503,0.15503c0.10965,0.10965 0.04541,0.20047 0.15503,0.31009c0.10965,0.10965 0.04544,0.04541 0.15506,0.15503c0.10962,0.10962 0.15503,0 0.15503,0c0,0 0,0 0,-0.15503c0,-0.15503 -0.07114,-0.4176 -0.15503,-0.62015c-0.05933,-0.14325 0,-0.31009 0,-0.46512c0,0 0,0 0,-0.15506c0,0 0,-0.15503 0,-0.15503c0,-0.15503 0,-0.15503 0,-0.15503c0,0 0,0 0,0c0,0.15503 0,0.46512 0,0.77518c0,0.31009 0.07538,0.43781 0.15503,0.77521c0.03561,0.15088 0,0.46512 0,0.62015c0,0.15503 0.15503,0.31009 0.15503,0.46512c0,0 0,0.15503 0,0.15503c0,0.15506 -0.15503,0.15506 -0.15503,0c0,0 0,-0.15503 0,-0.31006c0,-0.15506 0,-0.31009 0,-0.31009c0,-0.15503 -0.15503,-0.31009 -0.15503,-0.46512c0,0 -0.15506,-0.15503 -0.15506,-0.15503c0,-0.15503 -0.15503,-0.15503 -0.15503,-0.15503c0,0 0,0.15503 0,0.31006c0,0.15503 0,0.31009 0,0.62015c0,0.15506 0,0.31009 0,0.46512c0,0.15506 0.04541,0.20047 0.15503,0.31009c0.10962,0.10962 0.02682,0.1322 0.15506,0.31009c0.2027,0.28122 0.31006,0.46509 0.31006,0.46509c0,0.15506 0.15506,0.15506 0.15506,0.15506c0,-0.15506 0,-0.15506 0,-0.31009c0,-0.15503 0,-0.15503 0.15503,-0.31006c0,0 0,0 0.15503,0c0,0 0.15506,0 0.15506,0c0.15503,0 0.15503,0 0.15503,0c0,0 0,0 0,0.15503c0,0.15503 0.15503,0.31006 0.15503,0.62015c0,0.15503 0,0.31009 0.15506,0.46512c0,0 0,0 0,0c0,-0.31009 0,-0.46512 0,-0.62015c0,0 0,-0.15506 0,-0.31009c0,-0.15503 0,-0.15503 0,-0.31006c0,0 0,0 0,-0.15506c0,0 0,0 0,0c0,0.31009 0,0.46512 0,0.77521c0,0.31006 0.15503,0.46512 0.15503,0.62015c0,0 0,0.15503 0,0.15503c0.15503,0 0.15503,0 0.15503,0c0.15503,0 0.15503,0 0.15503,0c0,0 0,-0.15503 0,-0.15503c0.15506,-0.15503 0.15506,-0.15503 0.31009,-0.15503c0,0 0.15503,0 0.15503,0c0,0 0,0 0,0c0.15506,0 0.15506,0 0.15506,0c0,0 0,0.15503 0.15503,0.15503c0,0 0.10751,0.07114 0.31009,0.15503c0.14322,0.05933 0.26251,0.07114 0.46509,0.15506c0.14325,0.05936 0.31009,0 0.46512,0.15503c0.15506,0.15503 0.3555,0.04541 0.46512,0.15503c0.10962,0.10962 0.15506,0.15503 0.15506,0.15503c0.15503,0.15506 0.15503,0.15506 0.15503,0.15506c0.15503,0 0.15503,0 0.15503,0c0,0 0,0 0,0c0.15506,0.15503 0.15506,0.15503 0.31009,0.31006c0,0 0,0 0,0c0,0 0.15503,0 0.15503,0c0,0 0.15503,0 0.15503,0c0.15506,-0.15503 0.31009,-0.15503 0.31009,-0.15503c0.15503,0 0.15503,-0.15503 0.31009,-0.15503c0.15503,0 0.20044,0.10962 0.31006,0c0.10965,-0.10965 0.15506,-0.15506 0.15506,-0.15506c0.15503,-0.15503 0.15503,-0.15503 0.31006,-0.15503c0,0 0.01181,0.05933 0.15503,0c0.20258,-0.08389 0.31009,-0.15503 0.46512,-0.15503c0,0 0.15921,0.03561 0.31009,0c0.3374,-0.07965 0.46512,-0.15503 0.62015,-0.15503c0.15506,0 0.31009,-0.15506 0.46512,-0.15506c0.15503,0 0.15503,0 0.31009,0c0,0 0.01181,0.05933 0.15503,0c0.20255,-0.08389 0.47729,-0.43253 0.93024,-0.62015c0.32028,-0.13266 0.47693,-0.40579 0.62015,-0.46512c0.20255,-0.08389 0.10751,-0.22617 0.31009,-0.31006c0.14322,-0.05933 0.26242,-0.18387 0.46512,-0.46512c0.1282,-0.17789 0.31006,-0.31006 0.46512,-0.46512c0.15506,-0.15506 0.15503,-0.15506 0.15503,-0.31009c0,0 0.07114,0.04752 0.15503,-0.15503c0.05933,-0.14325 0,-0.31009 0.15503,-0.46512c0.15506,-0.15503 0.2262,-0.26257 0.31009,-0.46512c0.05933,-0.14322 0,-0.15503 0,-0.15503c0,-0.15506 0,-0.31009 0,-0.46512c0,-0.31009 0,-0.46512 0,-0.77521c0,-0.15503 0.05933,-0.32187 0,-0.46512c-0.08389,-0.20255 -0.22617,-0.41757 -0.31009,-0.62015c-0.05933,-0.14322 0.10962,-0.3555 0,-0.46512c-0.10962,-0.10962 -0.15503,-0.15503 -0.15503,-0.15503c0,0 0,0 0,0c-0.15503,0 -0.15503,0 -0.15503,0c0,0 0,0 0,0.15503c0,0.15503 -0.04541,0.3555 -0.15503,0.46512c-0.10962,0.10962 0,0.31009 0,0.31009c0,0.15503 0,0.31006 0,0.31006c0,0.15506 0,0.31009 0,0.31009c0,0.15503 0,0.15503 0,0.31009c0,0 0,0 0,0c0,0 -0.15506,0 -0.15506,0c0,0 0,0 0,0c0,0.15503 0,0.15503 0,0.31006c0,0.15503 0,0.46512 0,0.46512c0.15506,0.15503 0.15506,0.15503 0.15506,0.31009c0,0 0,0.15503 0.15503,0.15503c0,0 0.04541,0.04541 0.15503,0.15503c0.10965,0.10965 0.15503,0.15506 0.15503,0.15506c0.15506,0 0.15506,0 0.15506,0c0.15503,0 0.15503,0 0.15503,0c0,0 -0.11865,-0.33368 0,-0.62018c0.08389,-0.20255 0.15503,-0.31006 0.15503,-0.46512c0,-0.15503 0,-0.31006 0,-0.46509c0,-0.15506 0,-0.31009 0,-0.31009c0,0 0,-0.15503 0,-0.15503c0,0 0,0 0,0c0,0 0.01181,0.0957 0.15506,0.15503c0.20255,0.08389 0.15503,0.31009 0.15503,0.46512c0,0.15503 0,0.31006 0,0.46512c0,0.15503 0.15503,0.31006 0.15503,0.31006c0,0.15506 0,0.31009 0,0.46512c0,0 0,0.15506 0,0.15506c0,0 0,0 0,0.15503c0,0 0,0.31006 0,0.46512c0,0.15503 0,0.46512 0,0.62015c0,0.31009 0,0.46512 0,0.62015c0,0.15506 0,0.15506 -0.15503,0.15506c0,0 0,0 -0.15503,0.15503c0,0 -0.15506,0 -0.15506,0c0,0 -0.0957,-0.01181 -0.15503,-0.15503c-0.08389,-0.20258 -0.26575,-0.3429 -0.62015,-0.77521c-0.41702,-0.5087 -0.85059,-0.74789 -0.93024,-1.08527c-0.03561,-0.15088 0,-0.46512 0,-0.62015c0,-0.15506 0,-0.15506 0,-0.15506c0,-0.15503 0,-0.15503 0,-0.15503c0,-0.15503 0,-0.15503 0,-0.15503c0,0 0,0 0,0c0.15503,0 0.08377,0.16333 0.15503,0.46512c0.07965,0.3374 0.15506,0.62015 0.15506,0.77518c0,0.15503 0.15503,0.15503 0.15503,0.15503c0,0 0.15503,0 0.15503,0c0.15506,0 0.31009,0 0.31009,0c0.15503,0 0.15503,0 0.15503,0c0,0.15506 0,0.15506 0,0.31009c0,0 0,0 0,0c0,0.15503 0,0.15503 0,0.31009c0,0.15503 -0.15503,0.31006 0,0.31006c0.15503,0 0.10962,-0.20044 0,-0.31006c-0.10962,-0.10962 -0.15503,0 -0.15503,-0.15506c0,0 -0.10962,-0.04541 0,-0.15503c0.10962,-0.10962 0.15503,-0.15503 0.15503,-0.15503c0.15503,0 0.31009,0 0.31009,0c0.15503,0 0.46512,0 0.62015,0c0,0 0.15503,0 0.31009,0c0,0 -0.15506,0 -0.15506,0c-0.15503,0 -0.15503,0 -0.31006,0c-0.15506,0 -0.31009,0 -0.46512,0c-0.15506,0 -0.31009,0 -0.46512,0c-0.15503,0 -0.31009,0 -0.46512,0c0,0 -0.15503,0 -0.15503,0.15503c0,0 -0.15506,0 -0.15506,0.15503c0,0 0,0.15506 -0.15503,0.15506c0,0 0,0 0,0c0.15503,0 0.15503,0 0.31009,0c0.15503,0 0.31006,0.15503 0.46512,0.15503c0.15503,0 0.31836,-0.07126 0.62015,0c0.33737,0.07965 0.62015,0.15503 0.77518,0.15503c0.15506,0 0.15506,0.15506 0.31009,0.15506c0,0 -0.15503,-0.15506 -0.15503,-0.15506c-0.15506,-0.15503 -0.31009,-0.15503 -0.46512,-0.15503c-0.31009,0 -0.46512,0 -1.08527,0c-0.62018,0 -1.24612,-0.0947 -2.0155,0c-0.63446,0.07809 -1.21298,0.23044 -1.55038,0.31009c-0.15091,0.03564 -0.31009,0 -0.31009,0c0,0 0,0 0,0c0,0.15503 0,0.15503 0,0.15503c0,0 0,0.15503 0,0.15503c0,0 0,0 0,0c0,0 0,0.15506 0.15503,0.15506c0,0 0.15506,0 0.15506,0c0.15503,0 0.26251,-0.07114 0.46509,-0.15506c0.14325,-0.05936 0.15506,0 0.31009,0c0.15503,0 0.15503,0 0.31009,0c0,0 0,0 0,0c0,0 0,0 0.15503,0c0,0 0,0 0,0.15506c0,0 0.05933,0.01181 0,0.15503c-0.08389,0.20255 -0.31009,0.31006 -0.31009,0.31006c0,0.15506 -0.15503,0.15506 -0.31006,0.15506c0,0 -0.15506,0.15503 -0.15506,0.15503c0,0 0,0 0,0c0,0 0.15506,-0.15503 0.31009,-0.31009c0,0 0.15503,0 0.31009,0c0,0 0.15503,0 0.31006,0c0,0 0.15506,0 0.15506,0c0,0 0.04541,-0.10962 0.15503,0c0.10965,0.10965 0,0.15506 0,0.31009c0,0 0,0.15503 0,0.15503c0,0 0,0 0,0.15506c0,0 0,0 0,0.15503c0,0 0,0.15503 0,0.15503c0,0.15506 0,0.15506 0,0.15506c0,0 -0.15503,0 -0.15503,0c-0.15506,0 -0.31009,0 -0.31009,0c-0.15503,0 -0.31009,-0.15506 -0.31009,-0.15506c-0.15503,0 -0.31006,0 -0.46512,0c-0.15503,0 -0.31006,0 -0.62015,0c-0.15503,0 -0.20044,0.04544 -0.31006,0.15506c-0.10962,0.10962 -0.15506,0.15503 -0.15506,0.15503c0,0 -0.04541,0.04541 -0.15503,0.15503c-0.10962,0.10962 -0.31009,0 -0.31009,0c-0.15503,0 -0.10751,0.07114 -0.31006,0.15503c-0.14325,0.05933 -0.31009,0.15506 -0.31009,0.15506c-0.15503,0.15503 -0.22617,0.10751 -0.31006,0.31006c-0.05933,0.14325 -0.15506,0.15506 -0.15506,0.15506c-0.15503,0 -0.15503,0 -0.15503,0c0,0.15503 0.07114,0.10751 0.15503,0.31006c0.05933,0.14325 0,0.46512 0,0.77521c0,0.15503 0,0.31006 0,0.46512c0,0 0,0.15503 0,0.31006c0,0 0,0 0,0c0,0 0,0 0,0c0,0 -0.15503,-0.15503 -0.15503,-0.31006c0,-0.31009 -0.19479,-0.43362 -0.31009,-0.62015c-0.25778,-0.41705 -0.57581,-0.96304 -0.93021,-1.39536c-0.27802,-0.33914 -0.35547,-0.66556 -0.46512,-0.77521c-0.10965,-0.10965 -0.15506,0 -0.15506,0c0,0 0,0 0,0c0,0 -0.03561,0.31424 0,0.46512c0.07965,0.33743 0.2262,0.57263 0.31009,0.77521c0.11865,0.28647 0.0957,0.47693 0.15503,0.62015c0.08392,0.20258 0.04544,0.3555 0.15506,0.46512c0.10962,0.10962 0.15503,0.15503 0.15503,0.15503c0,0 0,0.15503 0,0.15503c0.15503,0.15506 0.15503,0.15506 0,0.15506c0,0 -0.07114,0.04752 -0.15503,-0.15506c-0.05933,-0.14322 -0.04544,-0.35547 -0.15506,-0.46509c-0.10962,-0.10962 -0.22617,-0.10754 -0.31006,-0.31009c-0.05933,-0.14322 -0.15506,-0.31009 -0.31009,-0.46512c-0.15503,-0.15503 -0.20047,-0.3555 -0.31009,-0.46512c-0.10962,-0.10962 -0.15503,-0.15503 -0.31006,-0.15503c0,0 0,-0.15506 0,-0.15506c0,0 -0.15506,0 -0.15506,0c-0.15503,-0.15503 -0.15503,-0.15503 -0.15503,-0.15503c0,0 0,0 -0.15503,-0.15503c0,0 -0.15503,-0.15503 -0.15503,-0.15503c-0.15506,0 -0.15506,-0.15506 -0.15506,-0.15506c-0.15503,0 -0.15503,-0.15503 -0.31006,-0.31006c-0.15506,-0.15506 -0.26257,-0.38123 -0.46512,-0.46512c-0.14325,-0.05933 -0.20047,-0.04544 -0.31009,-0.15506c-0.10962,-0.10962 -0.11942,-0.46924 -0.15503,-0.62015c-0.07965,-0.33737 -0.15503,-0.31006 -0.31009,-0.46512c0,0 0,-0.15503 0,-0.15503c0,0 0.2262,-0.04752 0.31009,0.15503c0.05933,0.14325 0.15503,0.15506 0.31006,0.31009c0,0 0.10754,0.07114 0.31009,0.15503c0.14322,0.05933 0.31009,0.15506 0.46512,0.31009c0.15503,0.15503 0.26254,0.3812 0.46512,0.46512c0.14322,0.05933 0.31006,0.15503 0.31006,0.15503c0.15506,0 0.15506,0 0.15506,0.15503c0,0 0,0 0,-0.15503c0,0 0,-0.15503 -0.15506,-0.15503c-0.15503,0 -0.15918,-0.11945 -0.31006,-0.15506c-0.3374,-0.07965 -0.46512,-0.15503 -0.62015,-0.15503c0,0 -0.15506,0 -0.15506,0c-0.15503,0 -0.31006,0 -0.46512,0c-0.15503,0 -0.20044,0.04541 -0.31006,0.15503c-0.10962,0.10962 -0.3555,-0.10962 -0.46512,0c-0.10965,0.10965 -0.15503,0.15506 -0.15503,0.15506c0,0.15503 -0.15506,0.15503 -0.15506,0.31006c0,0 -0.15503,0 -0.15503,0c0,0.15506 0,0.15506 0,0.31009c0,0 0,0.15503 0,0.15503c0,0 -0.15503,0 -0.15503,0c0,0 0,0 0,0c0,0 0,0 0,0c0,0 0,0 0,0c0.31006,0 0.47693,-0.05933 0.62015,0c0.20258,0.08392 0.31839,0.08383 0.62015,0.15506c0.3374,0.07965 0.62015,0.15503 1.08527,0.15503c0.31009,0 0.62015,0 0.93024,0c0.31009,0 0.62015,0 0.77521,0c0,0 0.15503,0 0.31006,0c0.15506,0 0.31009,0 0.46512,0c0.31009,0 0.46512,0 0.46512,0c0.15503,0 0.31009,0 0.31009,0c0.15503,0 0.31006,0 0.31006,0c0.15506,0 0.15506,0 0.15506,0c0,0 0.15503,0 0.15503,0c0,0 0,0 0,0c0.15503,0 0.15503,0 0.15503,0c0,-0.15503 0,-0.15503 0.15503,-0.15503c0,0 0.04541,0.10965 0.15506,0c0.10965,-0.10965 0,-0.15506 0,-0.15506c0,0 0,0 0.15503,0c0,0 0,0 0,0c0.15503,-0.15503 0.15503,-0.15503 0.15503,-0.15503c0.15506,0 0.15506,0 0.31009,0c0.15503,0 0.31009,0 0.31009,0c0.15503,0 0.31006,0 0.46512,0c0.15503,0 0.15503,0 0.31006,0c0.15503,0 0.31009,-0.15503 0.46512,-0.15503c0.15503,0 0.31009,0 0.46512,0c0.15503,0 0.15503,0 0.31009,0c0.15503,0 0.04538,-0.04541 0.15503,-0.15506c0.10962,-0.10962 0.15503,0 0.15503,-0.15503c0,0 0,-0.15503 0,-0.15503c0,-0.15506 0,-0.31009 0,-0.46512c0,-0.31009 0.07114,-0.4176 0.15503,-0.62015c0.05933,-0.14325 0.04541,-0.20044 0.15506,-0.31009c0.10962,-0.10962 0,-0.31009 0,-0.31009c0,0 0,0 0,0c0,0.15506 0,0.15506 0,0.15506c0,0.15503 0,0.15503 0,0.31006c0,0.15506 0.10962,0.3555 0,0.46512c-0.10965,0.10965 -0.10754,0.2262 -0.31009,0.31009c-0.14322,0.05933 -0.25073,0.16684 -0.31006,0.31006c-0.08392,0.20261 -0.31009,0.15506 -0.31009,0.15506c0,0.15503 -0.15503,0.15503 -0.15503,0.15503c0,0.15503 0,0.15503 -0.15506,0.15503c0,0 0,0 0,0c0,0 0,0.15506 0,0.15506c-0.15503,0.15503 -0.15503,0.15503 -0.15503,0.15503c0,0.15503 -0.04538,0.20044 -0.15503,0.31009c-0.10965,0.10965 -0.25076,0.16684 -0.31009,0.31006c-0.08389,0.20255 -0.20044,0.04541 -0.31006,0.15503c-0.10965,0.10965 0,0.15506 0,0.15506c0,0 -0.15506,0 -0.15506,0c0,0 0,0 0,0c-0.15503,0 -0.20044,-0.10962 -0.31006,0c-0.10962,0.10962 -0.15506,0.15503 -0.15506,0.15503c-0.15503,0 -0.46512,0 -0.46512,0c-0.31006,0.15503 -0.31006,0.15503 -0.31006,0.15503c-0.15506,0 -0.15506,0 -0.15506,0.15506c0,0 0,0 0,0c0,0.15503 0,0.15503 0,0.31006c0,0 0,0.15506 0,0.15506c0,0 -0.04541,0.04541 -0.15503,0.15503c-0.10962,0.10962 0,0.15503 0,0.31009c0,0 0,0.15503 0,0.15503c-0.15503,0 -0.15503,0 -0.15503,0c0,0 0,0.15503 0,0.15503c0,0 0,0 0,0c0,0 0,0 -0.15503,0.15503l0,0l0,0" id="svg_27" stroke="#000000" fill="none"/>
   <path d="m456.43314,282.16989c0,0 -0.15503,0 -0.15503,0c-0.15506,0 -0.62018,0 -0.93024,0c-0.46512,0 -0.77521,0 -0.93024,0c-0.15503,0 -0.15503,0 -0.15503,0c0,0 0,0 0.15503,0c0.31009,0 0.48871,-0.11865 0.77521,0c0.20255,0.08389 0.46924,0.11942 0.62015,0.15503c0.33737,0.07965 0.62015,0.15503 0.77518,0.15503c0.15506,0 0.15506,0.15506 0.15506,0.15506c0,0 0,0 0,0c0,0 -0.13223,0.02682 -0.31009,0.15503c-0.28125,0.2027 -0.46512,0.15503 -0.77521,0.31009c-0.31006,0.15503 -0.62015,0.46512 -0.93021,0.62015c-0.31009,0.15506 -0.60739,0.215 -0.77521,0.62015c-0.05933,0.14322 -0.31009,0.31009 -0.46512,0.62015c-0.15506,0.31009 -0.10733,0.49396 -0.31006,0.77521c-0.1282,0.17789 -0.5188,0.41943 -0.77521,0.77518c-0.2027,0.28125 -0.46512,0.46512 -0.62015,0.62015c-0.15503,0.15506 -0.26257,0.2262 -0.46512,0.31009c-0.2865,0.11865 -0.41757,0.22617 -0.62015,0.31009c-0.14325,0.05936 -0.46512,0 -0.62015,0c-0.46512,0 -0.93024,0 -1.0853,0c-0.31006,0 -0.31006,0 -0.31006,0c-0.15506,0 -0.15506,0 -0.15506,0c-0.15503,0 -0.31836,0.07126 -0.62015,0c-0.3374,-0.07965 -0.62015,-0.31009 -0.77518,-0.31009c0,0 0,0 0,0c0.15503,0 0.45789,0.07736 1.70541,0.15503c0.30948,0.01926 0.48871,0.03641 0.77521,0.15506c0.20255,0.08389 0.28723,0.18185 0.46512,0.31006c0.28125,0.2027 0.57263,0.38123 0.77518,0.46512c0.14322,0.05933 0.31009,0.15503 0.31009,0.15503c0,0 0,0 0,0c-0.15506,-0.15503 -0.31009,-0.15503 -0.46512,-0.15503c-0.15506,0 -0.46512,0 -0.62015,0c-0.15506,0 -0.31009,0 -0.62018,0c-0.31006,0 -0.62015,0 -0.93024,0c-0.46509,0 -0.77518,0 -0.93021,0c-0.15506,0 -0.31839,0.07126 -0.62018,0c-0.33737,-0.07965 -0.62015,-0.15503 -0.77518,-0.15503c0,0 -0.15503,0 -0.31009,0c-0.15503,0 -0.6326,-0.04816 -1.08527,-0.15503c-0.3374,-0.07965 -0.57263,-0.2262 -0.77518,-0.31009c-0.14325,-0.05933 -0.33893,-0.10736 -0.62018,-0.31009c-0.17786,-0.1282 -0.20044,-0.20044 -0.31006,-0.31006c-0.10962,-0.10962 -0.15503,0 -0.15503,-0.15506c0,-0.15503 0.14941,-0.328 0.62015,-0.46509c0.61374,-0.17874 1.05795,-0.23044 1.39532,-0.31009c0.30179,-0.07126 0.31009,0 0.46512,0c0.15506,0 0.48874,0.03635 0.77521,0.15503c0.20258,0.08392 0.15503,0.31009 0.31009,0.31009c0,0 0,0 0,0c0,0 -0.15506,0 -0.31009,0c-0.46512,0 -0.77521,0 -1.08527,0c-0.15506,0 -0.31009,0 -0.31009,0c0,0 0,0 0,0.15503c0,0 0,0 0.15503,0c0,0 0,0 0,0c0.15506,0 0.15506,0 0.15506,0c0,0.15503 -0.02286,0.18188 0.15503,0.31009c0.28125,0.20273 0.46512,0.31006 0.46512,0.46512c0,0 0,0 0,0c0,-0.15506 -0.04541,-0.04544 -0.15503,-0.15506c-0.10962,-0.10962 -0.15506,-0.15503 -0.46512,-0.31006c-0.62015,-0.31009 -1.06644,-0.54163 -1.55038,-0.62015c-0.15305,-0.02484 -0.31009,-0.15506 -0.31009,-0.15506c0,0 0,0 0,0c0,0.15506 0.15503,0.31009 0.15503,0.15506c0,-0.15503 -0.15503,-0.00003 -0.46509,-0.15506c-0.31009,-0.15506 -0.64899,-0.26242 -0.93024,-0.46512c-0.17789,-0.1282 -0.53625,-0.26251 -0.62018,-0.46512c-0.05933,-0.14322 -0.15503,-0.15503 -0.15503,-0.15503c0,-0.15503 0,-0.15503 -0.15503,-0.31009c-0.15503,-0.15503 -0.31009,-0.46509 -0.46512,-0.77518c-0.15503,-0.31009 -0.22617,-0.41757 -0.31009,-0.62015c-0.05936,-0.14325 -0.15503,-0.31009 -0.31006,-0.46512c-0.15506,-0.15503 -0.15506,-0.31009 -0.31009,-0.31009c0,0 0,0 0,0c0,-0.15503 0,-0.15503 -0.15503,-0.15503c0,0 -0.01181,0.05933 -0.15503,0c-0.20258,-0.08389 -0.15506,-0.15503 -0.15506,-0.15503c0,0 0,0 0,0c-0.15503,-0.15506 -0.20044,-0.04544 -0.31006,-0.15506c-0.10962,-0.10962 -0.15506,-0.15503 -0.15506,-0.15503c0,-0.15503 0,-0.15503 -0.15503,-0.31009c0,0 -0.15503,-0.15503 -0.15503,-0.15503l0,0l0,0" id="svg_28" stroke="#000000" fill="none"/>
  </g>
 </g>
</svg>